<svg xmlns="http://www.w3.org/2000/svg" viewBox="0 0 100 400">
  <defs>
    <!-- Complex gradients for nebula effects -->
    <linearGradient id="nebulaGradient1" x1="0%" y1="0%" x2="100%" y2="100%">
      <stop offset="0%" style="stop-color:#0a0824"/>
      <stop offset="50%" style="stop-color:#1a1142"/>
      <stop offset="100%" style="stop-color:#0a0824"/>
    </linearGradient>
    
    <!-- Star glow effect -->
    <radialGradient id="starGlow" cx="50%" cy="50%" r="50%">
      <stop offset="0%" style="stop-color:white;stop-opacity:1"/>
      <stop offset="100%" style="stop-color:white;stop-opacity:0"/>
    </radialGradient>
    
    <!-- Purple nebula glow -->
    <radialGradient id="purpleNebula" cx="50%" cy="50%" r="50%">
      <stop offset="0%" style="stop-color:rgba(147, 112, 219, 0.4)"/>
      <stop offset="100%" style="stop-color:rgba(147, 112, 219, 0)"/>
    </radialGradient>
    
    <!-- Blue nebula glow -->
    <radialGradient id="blueNebula" cx="50%" cy="50%" r="50%">
      <stop offset="0%" style="stop-color:rgba(65, 105, 225, 0.4)"/>
      <stop offset="100%" style="stop-color:rgba(65, 105, 225, 0)"/>
    </radialGradient>
    
    <!-- Filter for star glow -->
    <filter id="glow">
      <feGaussianBlur stdDeviation="1" result="coloredBlur"/>
      <feMerge>
        <feMergeNode in="coloredBlur"/>
        <feMergeNode in="SourceGraphic"/>
      </feMerge>
    </filter>
  </defs>
  
  <!-- Base background -->
  <rect width="100" height="400" fill="url(#nebulaGradient1)"/>
  
  <!-- Nebula effects -->
  <g opacity="0.7">
    <path d="M10 50 Q 50 100 90 50" stroke="rgba(147, 112, 219, 0.3)" stroke-width="40" fill="none"/>
    <path d="M0 150 Q 50 200 100 150" stroke="rgba(65, 105, 225, 0.3)" stroke-width="30" fill="none"/>
    <path d="M20 250 Q 50 300 80 250" stroke="rgba(138, 43, 226, 0.3)" stroke-width="35" fill="none"/>
  </g>
  
  <!-- Nebula clouds -->
  <circle cx="50" cy="100" r="30" fill="url(#purpleNebula)"/>
  <circle cx="30" cy="200" r="25" fill="url(#blueNebula)"/>
  <circle cx="70" cy="300" r="35" fill="url(#purpleNebula)"/>
  
  <!-- Stars with glow -->
  <g filter="url(#glow)">
    <circle cx="20" cy="30" r="1" fill="white"/>
    <circle cx="70" cy="50" r="1.5" fill="white"/>
    <circle cx="40" cy="80" r="1" fill="white"/>
    <circle cx="80" cy="120" r="1.2" fill="white"/>
    <circle cx="30" cy="150" r="1.5" fill="white"/>
    <circle cx="60" cy="180" r="1" fill="white"/>
    <circle cx="25" cy="220" r="1.3" fill="white"/>
    <circle cx="75" cy="250" r="1" fill="white"/>
    <circle cx="45" cy="280" r="1.4" fill="white"/>
    <circle cx="85" cy="320" r="1.2" fill="white"/>
    <circle cx="35" cy="350" r="1" fill="white"/>
    <circle cx="65" cy="380" r="1.5" fill="white"/>
  </g>
  
  <!-- Additional small stars -->
  <g opacity="0.8">
    <circle cx="15" cy="40" r="0.5" fill="white"/>
    <circle cx="85" cy="70" r="0.5" fill="white"/>
    <circle cx="45" cy="110" r="0.5" fill="white"/>
    <circle cx="75" cy="140" r="0.5" fill="white"/>
    <circle cx="25" cy="170" r="0.5" fill="white"/>
    <circle cx="65" cy="200" r="0.5" fill="white"/>
    <circle cx="35" cy="230" r="0.5" fill="white"/>
    <circle cx="85" cy="260" r="0.5" fill="white"/>
    <circle cx="15" cy="290" r="0.5" fill="white"/>
    <circle cx="55" cy="320" r="0.5" fill="white"/>
    <circle cx="75" cy="350" r="0.5" fill="white"/>
    <circle cx="35" cy="380" r="0.5" fill="white"/>
  </g>
</svg>
