<svg width="512" height="512" viewBox="0 0 512 512" fill="none" xmlns="http://www.w3.org/2000/svg">
<path d="M29.25 306.5C26.4167 305.5 24.25 303.75 22.75 301.25C21.25 298.75 20.5 295.917 20.5 292.75C20.5 288.75 21.6667 284.917 24 281.25C26.3333 277.417 29.4167 274.833 33.25 273.5L144.75 234.75C146.75 234.083 148.75 233.75 150.75 233.75C154.25 233.75 157 234.917 159 237.25C161 239.583 162 242.417 162 245.75C162 248.917 161 251.917 159 254.75C157.167 257.417 154.333 259.417 150.5 260.75L63 290.25L143 320C145.833 321 148 322.583 149.5 324.75C151 326.917 151.75 329.25 151.75 331.75C151.75 335.583 150.333 339.083 147.5 342.25C144.833 345.25 141.417 346.75 137.25 346.75C135.417 346.75 133.417 346.333 131.25 345.5L29.25 306.5Z" fill="black"/>
<path d="M360.25 213.5C360.25 227.667 356.583 240.667 349.25 252.5C341.917 264.333 331.25 274 317.25 281.5C303.25 289 286.583 293.417 267.25 294.75L256.5 355C252.333 378.167 241 389.75 222.5 389.75C212.333 389.75 202.917 386.75 194.25 380.75C185.75 374.75 178.917 365.583 173.75 353.25C168.583 340.917 166 325.75 166 307.75C166 273.917 171.417 245.25 182.25 221.75C193.25 198.083 207.917 180.417 226.25 168.75C244.75 156.917 265.083 151 287.25 151C302.917 151 316.167 153.75 327 159.25C338 164.75 346.25 172.25 351.75 181.75C357.417 191.083 360.25 201.667 360.25 213.5ZM271.75 269C305.917 264.667 323 246.917 323 215.75C323 204.75 319.333 195.833 312 189C304.833 182 293.667 178.5 278.5 178.5C261.333 178.5 246.333 183.917 233.5 194.75C220.833 205.583 211 220.667 204 240C197.167 259.167 193.75 281.083 193.75 305.75C193.75 316.083 194.75 325.25 196.75 333.25C198.917 341.25 201.583 347.5 204.75 352C208.083 356.333 211.25 358.5 214.25 358.5C218.417 358.5 221.583 352.75 223.75 341.25L232 294C225.5 293 222.667 292.583 223.5 292.75C218.5 291.917 215.25 290.417 213.75 288.25C212.25 285.917 211.5 283 211.5 279.5C211.5 275.833 212.5 272.917 214.5 270.75C216.667 268.583 219.583 267.5 223.25 267.5C224.917 267.5 226.167 267.583 227 267.75C231 268.417 234.083 268.833 236.25 269C238.417 256 241.5 238.583 245.5 216.75C246.5 211.083 248.75 207.083 252.25 204.75C255.917 202.25 260.167 201 265 201C270.5 201 274.417 202.083 276.75 204.25C279.25 206.25 280.5 209.5 280.5 214C280.5 216.667 280.333 218.833 280 220.5L271.75 269Z" fill="black"/>
<path d="M370 345.5C368 346.167 366 346.5 364 346.5C360.5 346.5 357.75 345.333 355.75 343C353.75 340.667 352.75 337.833 352.75 334.5C352.75 331.333 353.667 328.417 355.5 325.75C357.5 322.917 360.417 320.833 364.25 319.5L451.75 290L371.75 260.25C368.917 259.25 366.75 257.667 365.25 255.5C363.75 253.333 363 251 363 248.5C363 244.667 364.333 241.25 367 238.25C369.833 235.083 373.333 233.5 377.5 233.5C379.333 233.5 381.333 233.917 383.5 234.75L485.5 273.75C488.333 274.75 490.5 276.5 492 279C493.5 281.5 494.25 284.333 494.25 287.5C494.25 291.5 493.083 295.417 490.75 299.25C488.417 302.917 485.333 305.417 481.5 306.75L370 345.5Z" fill="black"/>
</svg>
