<svg xmlns="http://www.w3.org/2000/svg" viewBox="0 0 800 600">
  <defs>
    <!-- Enhanced background gradient -->
    <radialGradient id="skyGradient" cx="50%" cy="50%" r="70%">
      <stop offset="0%" style="stop-color:#0c0c2f"/>
      <stop offset="50%" style="stop-color:#000033"/>
      <stop offset="100%" style="stop-color:#000020"/>
    </radialGradient>
    
    <!-- Ultra bright star glow -->
    <filter id="ultraGlow">
      <feGaussianBlur stdDeviation="2" result="glow1"/>
      <feGaussianBlur stdDeviation="4" result="glow2"/>
      <feGaussianBlur stdDeviation="8" result="glow3"/>
      <feMerge>
        <feMergeNode in="glow3"/>
        <feMergeNode in="glow2"/>
        <feMergeNode in="glow1"/>
        <feMergeNode in="SourceGraphic"/>
      </feMerge>
    </filter>

    <!-- Shooting star gradient -->
    <linearGradient id="shootingStarGradient1" x1="0%" y1="0%" x2="100%" y2="100%">
      <stop offset="0%" style="stop-color:white;stop-opacity:1"/>
      <stop offset="20%" style="stop-color:white;stop-opacity:0.8"/>
      <stop offset="100%" style="stop-color:white;stop-opacity:0"/>
    </linearGradient>
  </defs>

  <!-- Background -->
  <rect width="800" height="600" fill="url(#skyGradient)"/>
  
  <!-- Original and additional stars with glow -->
  <g filter="url(#ultraGlow)">
    <!-- Original tiny stars -->
    <circle cx="50" cy="50" r="0.5" fill="#ffffff"/>
    <circle cx="120" cy="80" r="0.5" fill="#ffffff"/>
    <circle cx="200" cy="30" r="0.5" fill="#ffffff"/>
    <circle cx="280" cy="90" r="0.5" fill="#ffffff"/>
    <circle cx="350" cy="40" r="0.5" fill="#ffffff"/>
    <circle cx="420" cy="70" r="0.5" fill="#ffffff"/>
    <circle cx="500" cy="45" r="0.5" fill="#ffffff"/>
    <circle cx="580" cy="85" r="0.5" fill="#ffffff"/>
    <circle cx="650" cy="35" r="0.5" fill="#ffffff"/>
    <circle cx="720" cy="75" r="0.5" fill="#ffffff"/>
    
    <!-- Additional stars near top -->
    <circle cx="75" cy="20" r="0.5" fill="#ffffff"/>
    <circle cx="150" cy="15" r="0.5" fill="#ffffff"/>
    <circle cx="225" cy="25" r="0.5" fill="#ffffff"/>
    <circle cx="300" cy="10" r="0.5" fill="#ffffff"/>
    <circle cx="375" cy="30" r="0.5" fill="#ffffff"/>
    <circle cx="450" cy="20" r="0.5" fill="#ffffff"/>
    <circle cx="525" cy="15" r="0.5" fill="#ffffff"/>
    <circle cx="600" cy="25" r="0.5" fill="#ffffff"/>
    <circle cx="675" cy="10" r="0.5" fill="#ffffff"/>
    <circle cx="750" cy="30" r="0.5" fill="#ffffff"/>

    <!-- Additional stars near bottom -->
    <circle cx="75" cy="550" r="0.5" fill="#ffffff"/>
    <circle cx="150" cy="570" r="0.5" fill="#ffffff"/>
    <circle cx="225" cy="580" r="0.5" fill="#ffffff"/>
    <circle cx="300" cy="560" r="0.5" fill="#ffffff"/>
    <circle cx="375" cy="575" r="0.5" fill="#ffffff"/>
    <circle cx="450" cy="565" r="0.5" fill="#ffffff"/>
    <circle cx="525" cy="580" r="0.5" fill="#ffffff"/>
    <circle cx="600" cy="570" r="0.5" fill="#ffffff"/>
    <circle cx="675" cy="550" r="0.5" fill="#ffffff"/>
    <circle cx="750" cy="560" r="0.5" fill="#ffffff"/>

    <!-- Original medium stars -->
    <circle cx="100" cy="150" r="1.5" fill="#ffffff"/>
    <circle cx="250" cy="200" r="1.8" fill="#ffffff"/>
    <circle cx="400" cy="150" r="1.6" fill="#ffffff"/>
    <circle cx="550" cy="250" r="1.7" fill="#ffffff"/>
    <circle cx="700" cy="180" r="1.5" fill="#ffffff"/>
    <circle cx="150" cy="400" r="1.6" fill="#ffffff"/>
    <circle cx="300" cy="350" r="1.8" fill="#ffffff"/>
    <circle cx="450" cy="450" r="1.5" fill="#ffffff"/>
    <circle cx="600" cy="380" r="1.7" fill="#ffffff"/>
    <circle cx="750" cy="420" r="1.6" fill="#ffffff"/>

    <!-- Original bright stars -->
    <circle cx="150" cy="100" r="3" fill="#ffffff"/>
    <circle cx="650" cy="150" r="3.5" fill="#ffffff"/>
    <circle cx="400" cy="280" r="4" fill="#ffffff"/>
    <circle cx="200" cy="400" r="3.2" fill="#ffffff"/>
    <circle cx="700" cy="380" r="3.8" fill="#ffffff"/>
    <circle cx="300" cy="200" r="3.5" fill="#ffffff"/>
    <circle cx="550" cy="450" r="3.3" fill="#ffffff"/>
    <circle cx="480" cy="120" r="3.6" fill="#ffffff"/>
    <circle cx="120" cy="320" r="3.4" fill="#ffffff"/>
    <circle cx="750" cy="250" r="3.7" fill="#ffffff"/>
  </g>

  <!-- Realistic shooting stars -->
  <g>
    <!-- Shooting star 1 -->
    <g>
      <animate attributeName="opacity" values="0;1;0" dur="2s" repeatCount="indefinite"/>
      <!-- Bright head -->
      <circle r="2" fill="white" filter="url(#ultraGlow)">
        <animate attributeName="cx" values="100;400" dur="2s" repeatCount="indefinite"/>
        <animate attributeName="cy" values="0;300" dur="2s" repeatCount="indefinite"/>
      </circle>
      <!-- Fading trail -->
      <path stroke="url(#shootingStarGradient1)" stroke-width="3">
        <animate attributeName="d" values="M100,0 L90,-10;M400,300 L390,290" dur="2s" repeatCount="indefinite"/>
      </path>
    </g>

    <!-- Shooting star 2 -->
    <g>
      <animate attributeName="opacity" values="0;1;0" dur="2.5s" begin="0.5s" repeatCount="indefinite"/>
      <!-- Bright head -->
      <circle r="2" fill="white" filter="url(#ultraGlow)">
        <animate attributeName="cx" values="300;600" dur="2.5s" begin="0.5s" repeatCount="indefinite"/>
        <animate attributeName="cy" values="0;300" dur="2.5s" begin="0.5s" repeatCount="indefinite"/>
      </circle>
      <!-- Fading trail -->
      <path stroke="url(#shootingStarGradient1)" stroke-width="3">
        <animate attributeName="d" values="M300,0 L290,-10;M600,300 L590,290" dur="2.5s" begin="0.5s" repeatCount="indefinite"/>
      </path>
    </g>

    <!-- Shooting star 3 -->
    <g>
      <animate attributeName="opacity" values="0;1;0" dur="3s" begin="1s" repeatCount="indefinite"/>
      <!-- Bright head -->
      <circle r="2" fill="white" filter="url(#ultraGlow)">
        <animate attributeName="cx" values="500;800" dur="3s" begin="1s" repeatCount="indefinite"/>
        <animate attributeName="cy" values="0;300" dur="3s" begin="1s" repeatCount="indefinite"/>
      </circle>
      <!-- Fading trail -->
      <path stroke="url(#shootingStarGradient1)" stroke-width="3">
        <animate attributeName="d" values="M500,0 L490,-10;M800,300 L790,290" dur="3s" begin="1s" repeatCount="indefinite"/>
      </path>
    </g>
  </g>

  <!-- Original twinkling stars -->
  <g>
    <animate attributeName="opacity" values="0.4;1;0.4" dur="2s" repeatCount="indefinite"/>
    <circle cx="280" cy="120" r="2" fill="#ffffff"/>
    <circle cx="420" cy="220" r="2.2" fill="#ffffff"/>
    <circle cx="560" cy="180" r="2" fill="#ffffff"/>
    <circle cx="180" cy="350" r="2.1" fill="#ffffff"/>
    <circle cx="640" cy="280" r="2" fill="#ffffff"/>
  </g>
</svg>
